<svg xmlns="http://www.w3.org/2000/svg" viewBox="0 0 100 100" preserveAspectRatio="xMidYMid" class="w-full h-full" style="shape-rendering: auto; display: block; background: transparent;" xmlns:xlink="http://www.w3.org/1999/xlink"><g><g transform="rotate(0 50 50)">
  <rect fill="#0029bd" height="10" width="10" ry="2.4" rx="2.4" y="18" x="45">
    <animate repeatCount="indefinite" begin="-0.4128440366972478s" dur="0.4587155963302753s" keyTimes="0;1" values="1;0" attributeName="opacity"></animate>
  </rect>
</g><g transform="rotate(36 50 50)">
  <rect fill="rgba(0, 41, 189, 0.93)" height="10" width="10" ry="2.4" rx="2.4" y="18" x="45">
    <animate repeatCount="indefinite" begin="-0.3669724770642202s" dur="0.4587155963302753s" keyTimes="0;1" values="1;0" attributeName="opacity"></animate>
  </rect>
</g><g transform="rotate(72 50 50)">
  <rect fill="rgba(22, 41, 189, 0.847)" height="10" width="10" ry="2.4" rx="2.4" y="18" x="45">
    <animate repeatCount="indefinite" begin="-0.3211009174311927s" dur="0.4587155963302753s" keyTimes="0;1" values="1;0" attributeName="opacity"></animate>
  </rect>
</g><g transform="rotate(108 50 50)">
  <rect fill="#0021cd" height="10" width="10" ry="2.4" rx="2.4" y="18" x="45">
    <animate repeatCount="indefinite" begin="-0.27522935779816515s" dur="0.4587155963302753s" keyTimes="0;1" values="1;0" attributeName="opacity"></animate>
  </rect>
</g><g transform="rotate(144 50 50)">
  <rect fill="#2650db" height="10" width="10" ry="2.4" rx="2.4" y="18" x="45">
    <animate repeatCount="indefinite" begin="-0.22935779816513766s" dur="0.4587155963302753s" keyTimes="0;1" values="1;0" attributeName="opacity"></animate>
  </rect>
</g><g transform="rotate(180 50 50)">
  <rect fill="#0030c8" height="10" width="10" ry="2.4" rx="2.4" y="18" x="45">
    <animate repeatCount="indefinite" begin="-0.1834862385321101s" dur="0.4587155963302753s" keyTimes="0;1" values="1;0" attributeName="opacity"></animate>
  </rect>
</g><g transform="rotate(216 50 50)">
  <rect fill="#4456db" height="10" width="10" ry="2.4" rx="2.4" y="18" x="45">
    <animate repeatCount="indefinite" begin="-0.13761467889908258s" dur="0.4587155963302753s" keyTimes="0;1" values="1;0" attributeName="opacity"></animate>
  </rect>
</g><g transform="rotate(252 50 50)">
  <rect fill="#0029bd" height="10" width="10" ry="2.4" rx="2.4" y="18" x="45">
    <animate repeatCount="indefinite" begin="-0.09174311926605505s" dur="0.4587155963302753s" keyTimes="0;1" values="1;0" attributeName="opacity"></animate>
  </rect>
</g><g transform="rotate(288 50 50)">
  <rect fill="rgba(0, 41, 189, 0.93)" height="10" width="10" ry="2.4" rx="2.4" y="18" x="45">
    <animate repeatCount="indefinite" begin="-0.045871559633027525s" dur="0.4587155963302753s" keyTimes="0;1" values="1;0" attributeName="opacity"></animate>
  </rect>
</g><g transform="rotate(324 50 50)">
  <rect fill="rgba(22, 41, 189, 0.847)" height="10" width="10" ry="2.4" rx="2.4" y="18" x="45">
    <animate repeatCount="indefinite" begin="0s" dur="0.4587155963302753s" keyTimes="0;1" values="1;0" attributeName="opacity"></animate>
  </rect>
</g><g></g></g><!-- [ldio] generated by https://loading.io --></svg>
